<?xml version="1.0" encoding="utf-8"?><svg xmlns="http://www.w3.org/2000/svg" xmlns:xlink="http://www.w3.org/1999/xlink"><symbol viewBox="0 0 10.29 12" id="icon-cd_acceleration" xmlns="http://www.w3.org/2000/svg"><path d="M5.14 10.86a4 4 0 114-4 4 4 0 01-4 4m4-7.21l.86-.81A10.19 10.19 0 009.17 2l-.82.83a5.06 5.06 0 00-3.21-1.12 5.16 5.16 0 104 1.94M4.57 7.43h1.14V4H4.57m2.29-4H3.43v1.14h3.43z"/></symbol><symbol viewBox="0 0 12 12" id="icon-cd_account" xmlns="http://www.w3.org/2000/svg"><path d="M6 0a3 3 0 11-3 3 3 3 0 013-3m0 7.5c3.32 0 6 1.34 6 3V12H0v-1.5c0-1.66 2.68-3 6-3z"/></symbol><symbol viewBox="0 0 11.6 11.6" id="icon-cd_add" xmlns="http://www.w3.org/2000/svg"><path d="M12 7H7v5H5V7H0V5h5V0h2v5h5z"/></symbol><symbol viewBox="0 0 14.4 12" id="icon-cd_alert" xmlns="http://www.w3.org/2000/svg"><path d="M7.85 7.58h-1.3V5.05h1.3m0 5.06h-1.3V8.84h1.3M0 12h14.4L7.2 0z"/></symbol><symbol viewBox="0 0 13.2 12" id="icon-cd_best-choice" xmlns="http://www.w3.org/2000/svg"><path d="M13.2 5.4A1.2 1.2 0 0012 4.2H8.21l.57-2.74a.62.62 0 000-.19.91.91 0 00-.24-.64L7.9 0 4 4a1.19 1.19 0 00-.35.85v6A1.2 1.2 0 004.8 12h5.4a1.19 1.19 0 001.1-.73L13.12 7a1.27 1.27 0 00.08-.44V5.4M0 12h2.4V4.8H0z"/></symbol><symbol viewBox="0 0 6 5.75" id="icon-cd_breadcrumb--divider" xmlns="http://www.w3.org/2000/svg"><path d="M0 5.75l6-2.87L0 0z"/></symbol><symbol viewBox="0 0 6.17 10" id="icon-cd_button--left" xmlns="http://www.w3.org/2000/svg"><path d="M6.17 1.18L2.36 5l3.81 3.83L5 10 0 5l5-5z"/></symbol><symbol viewBox="0 0 6.17 10" id="icon-cd_button--right" xmlns="http://www.w3.org/2000/svg"><path d="M0 8.82L3.82 5 0 1.17 1.17 0l5 5-5 5z"/></symbol><symbol viewBox="0 0 8.4 12" id="icon-cd_calculate" xmlns="http://www.w3.org/2000/svg"><path d="M1.2 0h6a1.2 1.2 0 011.2 1.2v9.6A1.2 1.2 0 017.2 12h-6A1.2 1.2 0 010 10.8V1.2A1.2 1.2 0 011.2 0m0 1.2v2.4h6V1.2h-6m0 3.6V6h1.2V4.8H1.2m2.4 0V6h1.2V4.8H3.6m2.4 0V6h1.2V4.8H6M1.2 7.2v1.2h1.2V7.2H1.2m2.4 0v1.2h1.2V7.2H3.6m2.4 0v1.2h1.2V7.2H6M1.2 9.6v1.2h1.2V9.6H1.2m2.4 0v1.2h1.2V9.6H3.6m2.4 0v1.2h1.2V9.6z"/></symbol><symbol viewBox="0 0 10.8 12" id="icon-cd_calendar-question" xmlns="http://www.w3.org/2000/svg"><path d="M1.8 0v1.2h-.6A1.2 1.2 0 000 2.4v8.4A1.2 1.2 0 001.2 12h8.4a1.2 1.2 0 001.2-1.2V2.4a1.2 1.2 0 00-1.2-1.2H9V0H7.8v1.2H3V0H1.8m-.6 4.2h8.4v6.6H1.2V4.2m4.31.6a2.11 2.11 0 00-1.26.35 1.24 1.24 0 00-.46 1.07H5a.56.56 0 01.17-.41.65.65 0 01.84 0 .62.62 0 01.16.45.81.81 0 01-.17.53 1.12 1.12 0 01-.36.36 2.26 2.26 0 00-.64.54 1.2 1.2 0 00-.19.71H6a.89.89 0 01.08-.4.81.81 0 01.3-.32 1.81 1.81 0 00.67-.55 1.31 1.31 0 00.26-.79 1.35 1.35 0 00-.48-1.09 2 2 0 00-1.32-.45M4.8 9v1.2H6V9z"/></symbol><symbol viewBox="0 0 22.34 12" id="icon-cd_car-search" xmlns="http://www.w3.org/2000/svg"><path d="M3.92 8.05a4.72 4.72 0 116.67 0 4.72 4.72 0 01-6.67 0zM9.8 2.17a3.6 3.6 0 100 5.09 3.61 3.61 0 000-5.09z"/><path d="M2.12 11.45L4.8 8.14l-.48-.48-.48-.48L.53 9.85.34 10A1.15 1.15 0 002 11.64a.9.9 0 00.12-.19zM22.3 4.19l-.11-.28a.49.49 0 00-.44-.28h-1.86l-.56-1.74a1 1 0 00-.9-.65h-6.75a5.68 5.68 0 01.6.93h6.16l.83 2.57h-6.39a5.61 5.61 0 01-5.62 5.6 6 6 0 01-1.13-.11V12H9v-1.41h10.29V12h2.82V6.86a1 1 0 00-.35-.76l-1-.86L22 4.81a.46.46 0 00.3-.62zM21 7.15v.47a.49.49 0 01-.5.49h-2.12a.5.5 0 01-.11-1l2.17-.47a.5.5 0 01.56.51z"/></symbol><symbol id="icon-cd_cash-allowance" viewBox="0 0 13.98 12" xmlns="http://www.w3.org/2000/svg"><defs><style>.alcls-1{fill:#fff}</style></defs><path d="M10.59 11.5A2.58 2.58 0 008 10.08H4.85a3.6 3.6 0 01-1.37-.47L.53 8.08A.14.14 0 01.5 8a.18.18 0 01.17-.17.14.14 0 01.12.06l.36.37.14-.14c.89.35 2.12.85 2.37 1s.55.23 2.57.23C7.6 9.34 9 9.28 9 9.28h.15l.15-.08a.68.68 0 00.3-.54.63.63 0 00-.32-.51l-.12-.07H6.77a.13.13 0 01-.07-.13.16.16 0 01.06-.13h3.69A2.36 2.36 0 0112 9.13l1.15 2.37z"/><path d="M10.38 8.29a2 2 0 011.21 1.06l.8 1.65h-1.5a2.85 2.85 0 00-1.58-1.23l.24-.15a1.18 1.18 0 00.52-1 1.11 1.11 0 00-.07-.33h.36m.07-1H6.62a.69.69 0 00-.44.63.69.69 0 00.46.63H9c.16.1 0 .2 0 .2s-1.43.06-2.79.06a9.31 9.31 0 01-2.32-.16C3.47 8.4 1.15 7.5 1.15 7.5a.68.68 0 00-.49-.22A.67.67 0 000 8a.7.7 0 00.22.5l3 1.56a4.21 4.21 0 001.62.53H8c2 0 2.22 1.42 2.22 1.42H14l-1.53-3.13a2.76 2.76 0 00-2-1.59z"/><path class="alcls-1" d="M12.31 3.1H.94L2.93 0h7.71zM1.87 2.75h9.54L10.3.35H3.23z"/><path d="M10.64 0H2.93L.94 3.1h11.37L10.64 0zM1.87 2.75L3.23.36h7.07l1.11 2.4z"/><path class="alcls-1" d="M3.7.77c.3-.15.3-.37.19-.5a.79.79 0 00-.76 0c-.28.15-.39.37-.24.5a.89.89 0 00.81 0z"/><path d="M3.59.19a1.11 1.11 0 00-.46.11c-.28.15-.39.37-.24.5a.51.51 0 00.32.08A1.21 1.21 0 003.7.77c.3-.15.3-.37.19-.5a.53.53 0 00-.3-.08z"/><path class="alcls-1" d="M9.79.76C9.54.61 9.48.39 9.65.27a.75.75 0 01.75 0c.27.15.36.37.19.5a.85.85 0 01-.8-.01z"/><path d="M10 .18a.52.52 0 00-.31.09c-.17.12-.11.34.14.49a1 1 0 00.47.12.56.56 0 00.33-.09c.17-.13.08-.35-.19-.5A1 1 0 0010 .18z"/><path class="alcls-1" d="M3 2.34c.19.15.07.37-.29.49a1.25 1.25 0 01-1 0c-.17-.15 0-.37.35-.5a1.1 1.1 0 01.94.01z"/><path d="M2.51 2.22a1.47 1.47 0 00-.5.09c-.36.13-.52.35-.35.5a.9.9 0 00.48.11 1.58 1.58 0 00.52-.09c.36-.12.48-.34.29-.49a.7.7 0 00-.44-.12z"/><path class="alcls-1" d="M10.37 2.34c-.2.14-.1.37.24.49a1.21 1.21 0 001 0c.19-.14.05-.36-.29-.49a1.14 1.14 0 00-.95 0z"/><path d="M10.83 2.22a.76.76 0 00-.46.12c-.2.14-.1.37.24.49a1.54 1.54 0 00.52.09.81.81 0 00.48-.12c.19-.14.05-.36-.29-.49a1.41 1.41 0 00-.49-.09z"/><path class="alcls-1" d="M7.62 1.36v-.12l.07-.13a1.16 1.16 0 01.2.25z"/><path d="M6.77.26a2 2 0 00-1.83 1.29c-.19.71.57 1.29 1.7 1.29s2-.58 1.83-1.29A1.72 1.72 0 006.77.26zm-.65 1v-.15a.27.27 0 01.2-.23 1.07 1.07 0 01.39-.06 2.14 2.14 0 01.5.06L7.14 1a1.81 1.81 0 00-.36 0 .28.28 0 00-.15 0 .1.1 0 00-.06.09v.15h.53v.19h-.54v.14c0 .12-.08.21-.26.26h1.23l.08.32H5.67l.07-.31a.72.72 0 00.26-.1.24.24 0 00.09-.16v-.14h-.27v-.19z"/><path class="alcls-1" d="M.94 3.39h11.37v.32H.94z"/><path d="M12.31 3.39H.94v.32h11.37v-.32z"/><path class="alcls-1" d="M.94 3.92h11.37v.32H.94z"/><path d="M12.31 3.92H.94v.32h11.37v-.32z"/><path class="alcls-1" d="M.94 4.45h11.37v.32H.94z"/><path d="M12.31 4.45H.94v.32h11.37v-.32z"/><path class="alcls-1" d="M.94 4.98h11.37v.32H.94z"/><path d="M12.31 4.98H.94v.32h11.37v-.32z"/><path class="alcls-1" d="M.94 5.51h11.37v.32H.94z"/><path d="M12.31 5.51H.94v.32h11.37v-.32z"/></symbol><symbol viewBox="0 0 14.5 11.11" id="icon-cd_checkbox--selected" xmlns="http://www.w3.org/2000/svg"><path d="M14.5 1.17l-9.94 9.94L0 6.55l1.17-1.16 3.39 3.38L13.33 0z"/></symbol><symbol viewBox="0 0 10 6.18" id="icon-cd_collapse--down" xmlns="http://www.w3.org/2000/svg"><path d="M1.17 0L5 3.83 8.83 0 10 1.18l-5 5-5-5z"/></symbol><symbol viewBox="0 0 10 6.18" id="icon-cd_collapse--up" xmlns="http://www.w3.org/2000/svg"><path d="M8.83 6.18L5 2.36 1.17 6.18 0 5l5-5 5 5z"/></symbol><symbol viewBox="0 0 24 24" id="icon-cd_compare" xmlns="http://www.w3.org/2000/svg"><path d="M10.47 15.19H4.16l1-3.12h5.3v-1.13H5.18a1.14 1.14 0 00-1.09.79l-.68 2.11H1.15a.58.58 0 00-.53.35l-.14.33a.57.57 0 00.34.76l1.49.51-1.18 1.05a1.24 1.24 0 00-.41.93V24h3.42v-1.71h6.33zm-5.22 4.09H2.61a.6.6 0 01-.6-.6v-.57a.61.61 0 01.73-.59l2.63.57a.61.61 0 01.48.59.6.6 0 01-.6.6zM13.53 22.29h6.33V24h3.42v-6.23a1.24 1.24 0 00-.41-.93l-1.18-1.05 1.49-.51a.57.57 0 00.34-.76l-.14-.33a.58.58 0 00-.53-.35h-2.26l-.68-2.11a1.14 1.14 0 00-1.09-.79h-5.29v1.13h5.3l1 3.12h-6.3zm4.62-3.61a.61.61 0 01.48-.59l2.63-.57a.61.61 0 01.73.59v.57a.6.6 0 01-.6.6h-2.64a.6.6 0 01-.6-.6zM11.71 14.9h.75v1.34h-.75zM11.71 12.49h.75v1.34h-.75zM11.71 10.1h.75v1.34h-.75zM11.71 22.12h.75v1.34h-.75zM11.71 19.72h.75v1.34h-.75zM11.71 17.32h.75v1.34h-.75zM10.16 6.47H5.85V7.7h4.31v1.85l2.46-2.46-2.46-2.46v1.84zM13.84 2.78V.93L11.38 3.4l2.46 2.46V4.01h4.31V2.78h-4.31z"/></symbol><symbol viewBox="0 0 12 12" id="icon-cd_compare-rates" xmlns="http://www.w3.org/2000/svg"><path d="M0 8.76h3.27v3.27H0zM0 .03h3.27V3.3H0zM0 4.4h3.27v3.27H0zM7.64.88V0H4.36v3.31h.83A3.07 3.07 0 017.64.88zM8.73 0v.87a3.09 3.09 0 012.51 2.44H12V0zM8.73 8.76H12v3.27H8.73zM8.73 6.94v.73H12V4.4h-.75a3.07 3.07 0 01-2.52 2.54zM5.18 4.4h-.82v3.27h3.28v-.74A3.07 3.07 0 015.18 4.4zM4.36 8.76h3.27v3.27H4.36zM7.32 4.5H6.06v.6h1.26V6l1.19-1.2-1.19-1.19v.89zM9.11 2.71v-.9l-1.19 1.2L9.11 4.2v-.89h1.26v-.6H9.11z"/></symbol><symbol id="icon-cd_correct-car" viewBox="0 0 19.52 12" xmlns="http://www.w3.org/2000/svg"><defs><style>.arcls-1{stroke:#000;stroke-miterlimit:10;stroke-width:.25px}</style></defs><path class="arcls-1" d="M1.83 8.12a4.45 4.45 0 116.29 0 4.44 4.44 0 01-6.29 0zm6-6a4 4 0 100 5.63 4 4 0 00-.04-5.59z"/><path d="M19.48 4.47l-.11-.27a.45.45 0 00-.37-.27h-1.84l-.55-1.68a.91.91 0 00-.86-.63H9.24a6 6 0 01.58.9h5.94l.8 2.48H10.4A5.42 5.42 0 015 10.4a4.86 4.86 0 01-1.09-.11V12h2.7v-1.36h10V12h2.69V7.05a1 1 0 00-.3-.74l-1-.83 1.18-.41a.45.45 0 00.3-.6zm-1.21 2.85v.45a.48.48 0 01-.48.48H15.7a.47.47 0 01-.48-.48.49.49 0 01.38-.47l2.09-.45a.48.48 0 01.58.47z"/><path class="arcls-1" d="M7.52 3.5L3.79 7.23 2.08 5.52l.44-.44 1.27 1.27 3.29-3.29z"/></symbol><symbol viewBox="0 0 11.6 11.6" id="icon-cd_cross" xmlns="http://www.w3.org/2000/svg"><path d="M11.6 1.17L10.43 0 5.8 4.63 1.17 0 0 1.17 4.63 5.8 0 10.43l1.17 1.17L5.8 7l4.63 4.63 1.17-1.17L7 5.8z"/></symbol><symbol viewBox="0 0 14 18" id="icon-cd_delete" xmlns="http://www.w3.org/2000/svg"><path d="M13.67 1H10.5l-1-1h-5l-1 1H-.33v2h14m-13 13A2.31 2.31 0 003 18h8c1.1 0 1.67-.89 1.67-2V4h-12z"/></symbol><symbol viewBox="0 0 8.21 14" id="icon-cd_dependency" xmlns="http://www.w3.org/2000/svg"><path d="M-.22 8.87A5.73 5.73 0 011 5.27 3.68 3.68 0 014 3.9a4.29 4.29 0 012.78 1.17V0h1v14H6.69l-.09-1.13A3.36 3.36 0 013.82 14 3.55 3.55 0 011 12.64 5.83 5.83 0 01-.22 9zm1.88.19a4.28 4.28 0 00.69 2.59 2.4 2.4 0 002 .94c1.06 0 1.43-.48 2.43-1.42V6.69c-1-.91-1.38-1.37-2.41-1.37a2.3 2.3 0 00-2 .94 4.7 4.7 0 00-.71 2.8z"/></symbol><symbol viewBox="0 0 9.88 12" id="icon-cd_download" xmlns="http://www.w3.org/2000/svg"><path d="M0 12h9.88v-1.41H0m9.88-6.35H7.06V0H2.82v4.24H0l4.94 4.94z"/></symbol><symbol viewBox="0 0 10 6.18" id="icon-cd_drop-down--down" xmlns="http://www.w3.org/2000/svg"><path d="M1.17 0L5 3.83 8.83 0 10 1.18l-5 5-5-5z"/></symbol><symbol viewBox="0 0 10 6.18" id="icon-cd_drop-down--up" xmlns="http://www.w3.org/2000/svg"><path d="M8.83 6.18L5 2.36 1.17 6.18 0 5l5-5 5 5z"/></symbol><symbol viewBox="0 0 12.5 10" id="icon-cd_email" xmlns="http://www.w3.org/2000/svg"><path d="M11.25 0h-10A1.25 1.25 0 000 1.25v7.5A1.25 1.25 0 001.25 10h10a1.25 1.25 0 001.25-1.25v-7.5A1.25 1.25 0 0011.25 0m0 8.75h-10V2.5l5 3.12 5-3.12v6.25m0-7.5l-5 3.13-5-3.13h10z"/></symbol><symbol viewBox="0 0 18 12" id="icon-cd_emissions" xmlns="http://www.w3.org/2000/svg"><path d="M10.08 5.38a.93.93 0 00-.8.36 1.71 1.71 0 00-.27 1 1.74 1.74 0 00.27 1.06.93.93 0 00.79.35c.71 0 1.06-.47 1.06-1.41s-.35-1.36-1.05-1.36z"/><path d="M14.51 4.52A5.62 5.62 0 004 3a4.5 4.5 0 00.49 9h9.75a3.74 3.74 0 00.26-7.48zm-8.2 3.69A3.28 3.28 0 007.38 8v.74A3.06 3.06 0 016.23 9a1.76 1.76 0 01-1.4-.56 2.35 2.35 0 01-.48-1.58 2.6 2.6 0 01.24-1.15 1.71 1.71 0 01.68-.75 2.06 2.06 0 011-.26 2.87 2.87 0 011.22.29l-.28.72-.47-.19a1.33 1.33 0 00-.47-.08.89.89 0 00-.77.37 1.7 1.7 0 00-.28 1c.04.93.39 1.4 1.09 1.4zm5.24.18a1.94 1.94 0 01-1.48.61 1.9 1.9 0 01-1.47-.61 2.25 2.25 0 01-.52-1.6 2.23 2.23 0 01.52-1.6 1.94 1.94 0 011.48-.55 1.9 1.9 0 011.47.56 2.27 2.27 0 01.51 1.59 2.28 2.28 0 01-.51 1.6zm2.43.5h-1.46v-.31l.48-.53c.16-.16.26-.27.31-.33a.62.62 0 00.1-.17.45.45 0 000-.16.22.22 0 00-.07-.19.26.26 0 00-.18-.06.69.69 0 00-.24.05l-.24.16-.24-.28a2 2 0 01.26-.19l.3-.08a1.12 1.12 0 01.27 0 .74.74 0 01.34.07.53.53 0 01.24.2.58.58 0 01.08.3.86.86 0 01-.05.27 1.08 1.08 0 01-.16.26 4.15 4.15 0 01-.37.37l-.27.26H14z"/></symbol><symbol viewBox="0 0 12 12" id="icon-cd_enquire" xmlns="http://www.w3.org/2000/svg"><path d="M11.61.54H.39A.4.4 0 000 .93v7.19a.39.39 0 00.39.39h6v2.56a.39.39 0 00.24.36h.15a.39.39 0 00.28-.12l2.86-2.8h1.69a.39.39 0 00.39-.39V.93a.4.4 0 00-.39-.39z"/></symbol><symbol viewBox="0 0 10 10" id="icon-cd_expand" xmlns="http://www.w3.org/2000/svg"><path d="M4 10V9H1.89l2.5-2.55-.83-.81L1 8.11V6H0v4h4m2.44-5.6L9 1.89V4h1V0H6v1h2.11L5.63 3.55z"/></symbol><symbol viewBox="0 0 12 12" id="icon-cd_expand-left" xmlns="http://www.w3.org/2000/svg"><path d="M1.2 6.6h8.5L6.4 9.9l.85.85L12 6 7.25 1.25l-.85.85 3.3 3.3H1.2V0H0v12h1.2z"/></symbol><symbol viewBox="0 0 12 12" id="icon-cd_expand-right" xmlns="http://www.w3.org/2000/svg"><path d="M10.8 12H12V0h-1.2v5.4H2.3l3.3-3.3-.85-.85L0 6l4.75 4.75.85-.85-3.3-3.3h8.5z"/></symbol><symbol viewBox="0 0 12.05 14" id="icon-cd_filter" xmlns="http://www.w3.org/2000/svg"><path d="M-.2-.3h12v2h.2L7.8 6v8l-3-2.68V6L.06 1.7H-.2z"/></symbol><symbol viewBox="0 0 11.68 12" id="icon-cd_fuel" xmlns="http://www.w3.org/2000/svg"><path d="M5.81 0H.55A.55.55 0 000 .55v11.23h6.36V.55A.55.55 0 005.81 0zm-.25 4.2H.79V1.07h4.77z"/><path d="M8.88 12c-1.31 0-2.09-.9-2.17-2.46a7.57 7.57 0 01.29-2 14.93 14.93 0 00.31-1.67c.06-.58 0-.77-.09-.84s-.44-.12-.75-.12h-.15v-.78h.15a1.65 1.65 0 011.31.37 1.76 1.76 0 01.29 1.43 15.27 15.27 0 01-.33 1.76 7.71 7.71 0 00-.27 1.81c.06 1.15.53 1.74 1.41 1.74s1.46-.61 1.46-1.82a5.81 5.81 0 00-.52-2.28l-.08-.21a5.13 5.13 0 01-.26-1.81 8 8 0 01.19-2.31A3.46 3.46 0 0111 1l.16-.16.52.57-.18.15c-.65.59-.95.86-1.09 1.43a7.32 7.32 0 00-.17 2.08 4.56 4.56 0 00.21 1.57l.08.2a6.69 6.69 0 01.57 2.56c0 1.6-.83 2.6-2.22 2.6z"/><path d="M9.86 5.25v-.77h.93V3.78c0-.91-.15-1-.31-1.17l-.18-.17.56-.51L11 2c.33.27.58.58.58 1.75v.15a4.39 4.39 0 010 .84.56.56 0 01-.58.49H9.94z"/></symbol><symbol viewBox="0 0 11.18 12" id="icon-cd_fuel--electric" xmlns="http://www.w3.org/2000/svg"><path d="M6.36 5.62V.56A.56.56 0 005.81 0H.55A.56.56 0 000 .56V12h6.36V5.62zm-4 4.05s.56-1.73.56-1.75H1.77l1.94-2.44s-.33 1.78-.34 1.81 1.19 0 1.22 0S2.4 9.65 2.38 9.67zm3.2-5.39H.79V1.09h4.77z"/><path d="M11.13 2.54l-.13-.1a.1.1 0 00-.13 0l-.32.5-.47-.32.32-.5a.1.1 0 000-.13l-.15-.1a.09.09 0 00-.13 0l-.32.5-.3-.12-.41.64a.76.76 0 00.18 1 2.85 2.85 0 00-.27.65 6.47 6.47 0 00-.15 1.86A4.32 4.32 0 009 7.89l.07.16a5.08 5.08 0 01.44 1.85c0 1-.46 1.47-1.16 1.47S7.28 10.89 7.23 10a6.61 6.61 0 01.22-1.5 13.63 13.63 0 00.26-1.42 1.48 1.48 0 00-.23-1.16 1.35 1.35 0 00-1-.3h-.16v.63h.12a1.33 1.33 0 01.59.1c.07.06.12.21.07.68a10.62 10.62 0 01-.24 1.35A5.85 5.85 0 006.63 10c.06 1.26.68 2 1.72 2s1.76-.81 1.76-2.1a5.66 5.66 0 00-.45-2.07l-.06-.18a3.64 3.64 0 01-.17-1.27 6.32 6.32 0 01.13-1.68 1.62 1.62 0 01.21-.46.73.73 0 00.92-.24l.41-.64-.26-.17.32-.5a.09.09 0 00-.03-.15z"/></symbol><symbol viewBox="0 0 20 17" id="icon-cd_home" xmlns="http://www.w3.org/2000/svg"><path d="M8.13 17v-6h4v6h5V9H20L10 0 0 9h3.13v8z"/></symbol><symbol viewBox="0 0 5.62 14" id="icon-cd_info" xmlns="http://www.w3.org/2000/svg"><path d="M4.31 0a1.31 1.31 0 101.31 1.31A1.31 1.31 0 004.31 0M4 4.17C3 4.26.11 6.53.11 6.53c-.17.13-.12.12 0 .36s.12.26.29.14l.94-.59c1.86-1.19.3 1.56-.5 6.18-.31 2.29 1.75 1.11 2.29.76S5.08 12.07 5.22 12s0-.24-.1-.46-.21 0-.21 0c-.57.37-1.61 1.16-1.75.66s.9-3.92 1.49-6.27c.1-.62.35-1.84-.65-1.76z"/></symbol><symbol viewBox="0 0 11.6 11.6" id="icon-cd_info--close" xmlns="http://www.w3.org/2000/svg"><path d="M11.6 1.17L10.43 0 5.8 4.63 1.17 0 0 1.17 4.63 5.8 0 10.43l1.17 1.17L5.8 7l4.63 4.63 1.17-1.17L7 5.8z"/></symbol><symbol viewBox="0 0 9.91 11.94" id="icon-cd_insurance" xmlns="http://www.w3.org/2000/svg"><path d="M5 11.94h-.11C-.47 10.19 0 3.37 0 3.3v-.4l.33-.06a2.18 2.18 0 001.76-2v-.4l.42-.03L5 0l2.73.47v.4a2.21 2.21 0 001.77 2l.33.06v.4c0 .07.49 6.89-4.83 8.61zM.85 3.78c0 1.34.23 5.76 4.1 7.1a5.81 5.81 0 003.74-4.27 11.1 11.1 0 00.36-2.83A3.12 3.12 0 017 1.38L5 1l-2 .34A3.13 3.13 0 01.85 3.78z"/><path d="M5.25 5.83h3a11.85 11.85 0 00.2-1.71 3.66 3.66 0 01-2-2.3l-1.2-.22zM5.25 5.88H1.52a5.65 5.65 0 003.39 4.43l.34-.14z"/></symbol><symbol viewBox="0 0 12 12" id="icon-cd_lock" xmlns="http://www.w3.org/2000/svg"><path d="M6 9.14A1.14 1.14 0 104.86 8 1.14 1.14 0 006 9.14M9.43 4a1.14 1.14 0 011.14 1.14v5.72A1.14 1.14 0 019.43 12H2.57a1.14 1.14 0 01-1.14-1.14V5.14A1.14 1.14 0 012.57 4h.57V2.86a2.86 2.86 0 015.72 0V4h.57M6 1.14a1.71 1.71 0 00-1.71 1.72V4h3.42V2.86A1.71 1.71 0 006 1.14z"/></symbol><symbol viewBox="0 0 12 12" id="icon-cd_lock-open" xmlns="http://www.w3.org/2000/svg"><path d="M9.43 4a1.14 1.14 0 011.14 1.14v5.72A1.14 1.14 0 019.43 12H2.57a1.14 1.14 0 01-1.14-1.14V5.14A1.14 1.14 0 012.57 4h5.14V2.86a1.71 1.71 0 10-3.42 0H3.14a2.86 2.86 0 015.72 0V4h.57M6 9.14A1.14 1.14 0 104.86 8 1.14 1.14 0 006 9.14z"/></symbol><symbol viewBox="0 0 20.08 12" id="icon-cd_max-speed" xmlns="http://www.w3.org/2000/svg"><path d="M11.88 6.94L8.2 9.02l.55.64.55.63 2.58-3.35z"/><path d="M9.68 11.09a2.58 2.58 0 00-5.16 0 2.49 2.49 0 00.17.91h4.82a2.49 2.49 0 00.17-.91z"/><path d="M3 5.36C7.07 2 13.1 3 15 9.18h5.09C17.13-.44 9.1-1.85 4.44 2A14.18 14.18 0 000 9.18a11.69 11.69 0 013-3.82z"/></symbol><symbol viewBox="0 0 15 10" id="icon-cd_menu" xmlns="http://www.w3.org/2000/svg"><path d="M-.2 0h15v2h-15V0m0 4h15v2h-15V4m0 4h15v2h-15z"/></symbol><symbol viewBox="0 0 11.6 11.6" id="icon-cd_menu--close" xmlns="http://www.w3.org/2000/svg"><path d="M11.6 1.17L10.43 0 5.8 4.63 1.17 0 0 1.17 4.63 5.8 0 10.43l1.17 1.17L5.8 7l4.63 4.63 1.17-1.17L7 5.8z"/></symbol><symbol viewBox="0 0 11.6 1.65" id="icon-cd_minus" xmlns="http://www.w3.org/2000/svg"><path d="M11.4 2H.4V0h11z"/></symbol><symbol viewBox="0 0 3.33 13.3" id="icon-cd_more-actions" xmlns="http://www.w3.org/2000/svg"><path d="M1.66 10A1.66 1.66 0 110 11.64 1.66 1.66 0 011.66 10m0-5A1.66 1.66 0 110 6.65 1.66 1.66 0 011.66 5m0-5A1.66 1.66 0 110 1.66 1.66 1.66 0 011.66 0z"/></symbol><symbol viewBox="0 0 7.76 11.76" id="icon-cd_motorcycle" xmlns="http://www.w3.org/2000/svg"><path d="M4.13 6.79h-.51c-.62 0-1.13.52-1.13 1.14v1.63c0 .11.09.19.19.19h2.39c.11 0 .19-.09.19-.19V7.93c0-.63-.51-1.14-1.14-1.14zm.76 2.57H2.87V7.92c0-.41.34-.75.75-.76h.51c.41 0 .76.34.76.76v1.44zM3.14 11.03c0 .4.34.74.74.74s.74-.34.74-.74v-1.01H3.15v1.01z"/><path d="M7.27.95H6.01C5.1.95 5.1 0 3.93 0 2.64 0 2.69.95 1.77.95H.5c-.28 0-.5.22-.5.5s.22.5.5.5h1.26c.36 0 .57.14.78.33-.31.1-.59.26-.82.49-.36.36-.57.85-.57 1.37v3.6c0 .51.2 1 .56 1.36h.02c.06.07.12.12.19.18v-.56c-.23-.28-.35-.62-.36-.98v-3.6c0-.78.59-1.45 1.38-1.53.29.2.63.31.99.29.34 0 .66-.09.93-.29h.11c.84 0 1.53.69 1.53 1.53v3.6c0 .4-.16.79-.45 1.08-.06.06-.11.11-.17.15v.48c.63-.34 1.03-1 1.03-1.71v-3.6c0-.94-.68-1.74-1.61-1.91.2-.18.45-.28.72-.28h1.26c.28 0 .5-.22.5-.5s-.22-.49-.5-.49zM3.89 2.46a1.046 1.046 0 010-2.09 1.04 1.04 0 110 2.08z"/><path d="M4.08 5.53V3.66c0-.11-.1-.2-.2-.2s-.2.1-.2.2v1.87c0 .11.1.2.2.2s.2-.09.2-.2z"/></symbol><symbol viewBox="0 0 13.29 12" id="icon-cd_mpg" xmlns="http://www.w3.org/2000/svg"><path d="M11.26.6a.74.74 0 00-.75-.6H7.43l.15 2.25h-1.8L5.93 0H2.78A.82.82 0 002 .6L0 11.1a.79.79 0 00.75.9h4.43l.23-3.75H8L8.18 12h4.35a.79.79 0 00.75-.9L11.26.6M5.48 6.75l.15-3h2l.15 3z"/></symbol><symbol viewBox="0 0 12 12" id="icon-cd_no-car" xmlns="http://www.w3.org/2000/svg"><path d="M4.77 3.89h3.4l.39 1.22H6l3.44 3.44h.47V6.12a.52.52 0 00-.16-.37l-.46-.4.58-.21a.21.21 0 00.13-.29v-.13a.23.23 0 00-.21-.14h-.93l-.27-.82a.44.44 0 00-.42-.31H4.33zM9.12 6a.23.23 0 01.28.23v.22a.23.23 0 01-.23.24h-1a.24.24 0 01-.05-.47zM2.75 4.58H2.5a.23.23 0 00-.21.14v.13a.21.21 0 00.13.29l.58.21-.46.4a.52.52 0 00-.16.37v2.43h1.29v-.67h2.39zM4.1 6.71h-1a.23.23 0 01-.23-.24v-.22A.23.23 0 013.12 6l1 .22a.24.24 0 01-.05.47z"/><path d="M6 0a6 6 0 106 6 6 6 0 00-6-6zM1.08 5.83a5.13 5.13 0 01.7-2.57l7 7a5.09 5.09 0 01-7.7-4.43zm8.76 3.48L2.69 2.16a5.09 5.09 0 017.15 7.15z"/></symbol><symbol viewBox="0 0 12 12" id="icon-cd_no-image" xmlns="http://www.w3.org/2000/svg"><path d="M3.67 7l1.66 2 2.34-3 3 4H1.33m10.67.67V1.33A1.33 1.33 0 0010.67 0H1.33A1.34 1.34 0 000 1.33v9.34A1.34 1.34 0 001.33 12h9.34A1.34 1.34 0 0012 10.67z"/></symbol><symbol viewBox="0 0 12 12" id="icon-cd_phone" xmlns="http://www.w3.org/2000/svg"><path d="M12 9.46a.57.57 0 01-.17.51l-1.69 1.68a1.17 1.17 0 01-.3.22 1.84 1.84 0 01-.36.11h-.26a6.73 6.73 0 01-.78-.08 6 6 0 01-1.32-.41 10.75 10.75 0 01-1.77-1 13 13 0 01-2.11-1.74 14.07 14.07 0 01-1.47-1.67A13 13 0 01.83 5.6a8.2 8.2 0 01-.54-1.24 8.81 8.81 0 01-.24-1 3.24 3.24 0 010-.63v-.25a1.27 1.27 0 01.12-.36.78.78 0 01.22-.3L2 .18A.57.57 0 012.44 0a.43.43 0 01.29.1.8.8 0 01.27.23l1.31 2.58a.6.6 0 01.06.44.77.77 0 01-.21.41l-.63.62a.39.39 0 000 .09.37.37 0 000 .09 2.12 2.12 0 00.23.61 5.68 5.68 0 00.47.74 7.46 7.46 0 00.9 1 7.62 7.62 0 001 .91 5 5 0 00.74.48 1.9 1.9 0 00.46.18h.32l.73-.74a.79.79 0 01.53-.2.66.66 0 01.34.08L11.68 9a.66.66 0 01.32.46z"/></symbol><symbol viewBox="0 0 14.81 9.7" id="icon-cd_placeholder--car" xmlns="http://www.w3.org/2000/svg"><path d="M14.78 2.66l-.1-.25a.44.44 0 00-.39-.26h-1.68L12.1.59a.85.85 0 00-.81-.59H3.52a.86.86 0 00-.81.59L2.2 2.15H.53a.43.43 0 00-.39.26L0 2.66a.42.42 0 00.25.56l1.11.39-.87.77a.93.93 0 00-.31.69V9.7h2.57V8.43h9.32V9.7h2.54V5.07a1 1 0 00-.31-.69l-.88-.77 1.11-.39a.42.42 0 00.25-.56zM3.57 6.2H1.62a.45.45 0 01-.45-.45v-.42a.44.44 0 01.54-.44l2 .42a.46.46 0 01.29.44.45.45 0 01-.43.45zm-.81-3.05L3.52.84h7.78l.75 2.31H2.76zm10.88 2.18v.42a.45.45 0 01-.44.45h-2a.45.45 0 01-.45-.45.46.46 0 01.36-.44l1.95-.42a.44.44 0 01.58.44z"/></symbol><symbol viewBox="0 0 15 14.71" id="icon-cd_placeholder--van" xmlns="http://www.w3.org/2000/svg"><path d="M.43 5c.31 0 .78.45 1.13.42a10.22 10.22 0 00-.49 1.94C1 7.79.89 11.92 1.2 12c5.8 1 12.61.35 12.7.06-.11.35.22-3.65.11-4.61a5.27 5.27 0 00-.48-2c.34 0 .76-.38 1-.42s.6-.93.23-1.16-1.43-.35-1.38.17a2.29 2.29 0 01-.13.83C12.92 3.8 12.78.58 12.38.3S3.29-.17 2.77.36 2 4.09 1.86 4.67a2 2 0 01-.11.33 2.45 2.45 0 01-.17-1c0-.52-1-.4-1.38-.17S0 5 .43 5zm3.86 4.23S2 8.82 1.69 8.7s-.09-.82 0-1.36A1 1 0 012 6.81l2.09.53zm6.11.47H4.67l-.19-2h6zm2.91-1c-.26.12-2.58.53-2.58.53l.14-1.89 2.38-.45a1.24 1.24 0 01.19.45c.03.48.06 1.28-.13 1.36zM3.18 2A57.82 57.82 0 0112 2c.33.25.59 3.52.59 3.52-3.16-.32-9.78 0-10 0S2.48 5 2.48 5s.15-2.76.7-3z"/><path d="M14.44 13.7h-.6a9 9 0 00.05-1.47s-1.51.15-2.08.15l-.05 1.32H3.24l-.05-1.22a15.07 15.07 0 01-2.08-.35 10.3 10.3 0 000 1.57H.56c-.15 0-.27.34-.27.5s.12.5.27.5h13.88c.15 0 .27-.34.27-.5s-.12-.5-.27-.5z"/></symbol><symbol viewBox="0 0 8.55 12" id="icon-cd_pound" xmlns="http://www.w3.org/2000/svg"><path d="M5.06.05A8.08 8.08 0 018.2.71l-.75 1.86a5.83 5.83 0 00-2.19-.52 1.28 1.28 0 00-1 .36 1.42 1.42 0 00-.34 1V5H7v1.76H4v1.15a2.09 2.09 0 01-1.22 2h5.74V12H.08v-2a2.41 2.41 0 001.13-.81 2.22 2.22 0 00.32-1.26V6.76H.09V5h1.44V3.42A3.24 3.24 0 012.45.93 3.6 3.6 0 015.06.05z"/></symbol><symbol viewBox="0 0 16 14" id="icon-cd_print" xmlns="http://www.w3.org/2000/svg"><path d="M12.8-.3h-10v3h10m.75 4.3a.78.78 0 11.78-.78.78.78 0 01-.78.78m-2.75 4.7h-6v-3h6m2.75-5H2.67C1.38 3.7-.2 4.93-.2 6.22v4.48h3v3h10v-3h3V6.22a2.43 2.43 0 00-2.25-2.52z"/></symbol><symbol viewBox="0 0 12 12" id="icon-cd_quote-close" xmlns="http://www.w3.org/2000/svg"><path d="M7 8.5h1.5l1-2v-3h-3v3H8m-5 2h1.5l1-2v-3h-3v3H4z"/></symbol><symbol viewBox="0 0 12 12" id="icon-cd_quote-open" xmlns="http://www.w3.org/2000/svg"><path d="M5 3.5l-1 2h1.5v3h-3v-3l1-2H5m4 0l-1 2h1.5v3h-3v-3l1-2z"/></symbol><symbol viewBox="0 0 14 14" id="icon-cd_radio--selected" xmlns="http://www.w3.org/2000/svg"><path d="M7 0a7 7 0 107 7 7 7 0 00-7-7z"/></symbol><symbol viewBox="0 0 11.6 11.6" id="icon-cd_remove" xmlns="http://www.w3.org/2000/svg"><path d="M11.6 1.17L10.43 0 5.8 4.63 1.17 0 0 1.17 4.63 5.8 0 10.43l1.17 1.17L5.8 7l4.63 4.63 1.17-1.17L7 5.8z"/></symbol><symbol viewBox="0 0 12 12" id="icon-cd_rotate" xmlns="http://www.w3.org/2000/svg"><path d="M6 1.83c2.75 0 5 1.62 5 3.6A3.22 3.22 0 019.48 8a2.57 2.57 0 00.94-1.9C10.42 4.41 8.44 3 6 3v1.8L3.79 2.43 6 0v1.8m0 8.4c-2.75 0-5-1.61-5-3.6a3.19 3.19 0 011.52-2.54A2.54 2.54 0 001.58 6c0 1.66 1.98 3 4.42 3V7.23l2.21 2.4L6 12z"/></symbol><symbol viewBox="0 0 13.56 18" id="icon-cd_running-vehicle" xmlns="http://www.w3.org/2000/svg"><path d="M10 11v-.69H4V11h-.37v-.95a.75.75 0 00.26 0h1.05a.75.75 0 00.75-.74.76.76 0 00-.59-.73l-.82-.17h5.47l-.82.17a.76.76 0 00-.58.73.74.74 0 00.74.74h1.06a.75.75 0 00.26 0V11z"/><path d="M7.92 9a1.05 1.05 0 00-.07.4 1.33 1.33 0 00.08.45H6.1a1.13 1.13 0 00.09-.45 1.29 1.29 0 00-.07-.4h1.8m1.2-2.71h-4.2a.46.46 0 00-.44.32l-.27.85H3.3a.22.22 0 00-.21.14L3 7.71a.22.22 0 00.14.3l.6.21-.48.42a.51.51 0 00-.13.36v2.51H4.5v-.69h5v.69h1.37V9a.48.48 0 00-.17-.37l-.47-.42.6-.21a.22.22 0 00.13-.3l.04-.12a.23.23 0 00-.21-.14h-.96l-.27-.85a.47.47 0 00-.44-.32zM4.51 8l.4-1.25h4.21L9.53 8h-5zm4.58 1.62a.24.24 0 01-.24-.24.26.26 0 01.15-.24l1.06-.23h.05a.24.24 0 01.24.24v.23a.24.24 0 01-.24.24zm-5.2 0a.24.24 0 01-.24-.24v-.23a.24.24 0 01.24-.24L5 9.14a.26.26 0 01.19.24.25.25 0 01-.25.24z"/><path d="M4 15.09l1.62-1.63V15h1.21a5.93 5.93 0 005-8.81l.38-.38a6.45 6.45 0 01-5.46 9.71H5.6v1.3z"/><path d="M5.07 14.67v.81l-.42-.44.42-.42M12.26 5l-1.09 1a5.42 5.42 0 01-4.41 8.39h-.69v-2.2l-2.83 2.89L6.07 18v-2h.66a6.94 6.94 0 005.53-11zM2 4.08a6.9 6.9 0 014.8-2h.66V0l2.83 2.92-2.8 2.83v-2.2H6.8A5.42 5.42 0 002.39 12L1.3 13.05A7 7 0 012 4.08z"/></symbol><symbol id="icon-cd_salary-sacrifice" viewBox="0 0 18.99 11.46" xmlns="http://www.w3.org/2000/svg"><defs><style>.chcls-1{stroke:#000;stroke-miterlimit:10;stroke-width:.5px}</style></defs><path d="M8.43 4.52a3.79 3.79 0 01-1.16 2.73 4 4 0 01-5.63-5.63A3.91 3.91 0 016.39.93L6.67.6a4.44 4.44 0 00-5.37 7 4.45 4.45 0 007.6-3.16z"/><path class="chcls-1" d="M8.13 1.32A3.11 3.11 0 007.5.8l-3 3.64L9 3.6a3.31 3.31 0 00-.87-2.28z"/><path d="M19 3.93l-.12-.26a.44.44 0 00-.41-.28h-1.8l-.54-1.68a.92.92 0 00-.87-.63H8.71a5.4 5.4 0 01.58.92h5.94L16 4.46H9.88a5.44 5.44 0 01-5.43 5.41 5.6 5.6 0 01-1.09-.11v1.7h2.72V10.1h10v1.36h2.72v-5a1 1 0 00-.33-.74l-.94-.83 1.19-.41a.45.45 0 00.28-.55zm-1.26 2.85v.46a.47.47 0 01-.48.47h-2.09a.47.47 0 01-.1-.94l2.09-.45a.47.47 0 01.58.46zM3.14 2.71a2.38 2.38 0 011 .21l-.23.57a1.74 1.74 0 00-.67-.16.37.37 0 00-.3.11.43.43 0 00-.1.31v.48h.93v.54H2.8v.36a.65.65 0 01-.38.61H4.2v.65H1.61v-.62A.75.75 0 002 5.52a.7.7 0 00.09-.39v-.36h-.48v-.54h.44v-.48A1 1 0 012.34 3a1.11 1.11 0 01.8-.29z"/></symbol><symbol viewBox="0 0 13.99 13.99" id="icon-cd_search" xmlns="http://www.w3.org/2000/svg"><path d="M5.2 0a5.19 5.19 0 015.19 5.2 5.51 5.51 0 01-1.24 3.48l.21.32H10l4 3.9-1 1.1-3.88-4v-.64l-.38-.21a5.46 5.46 0 01-3.46 1.24A5.23 5.23 0 010 5.2 5.17 5.17 0 015.2 0m0 1.6a3.6 3.6 0 103.59 3.6A3.59 3.59 0 005.2 1.6z"/></symbol><symbol viewBox="0 0 19.45 20" id="icon-cd_settings" xmlns="http://www.w3.org/2000/svg"><path d="M9.73 13.5a3.5 3.5 0 113.5-3.5 3.5 3.5 0 01-3.5 3.5m7.43-2.5a7.77 7.77 0 00.07-1 8.55 8.55 0 00-.07-1l2.11-1.63a.5.5 0 00.12-.64l-2-3.46a.49.49 0 00-.61-.22l-2.49 1a7.25 7.25 0 00-1.69-1L12.23.42a.51.51 0 00-.5-.43h-4a.51.51 0 00-.5.43l-.37 2.65a7.25 7.25 0 00-1.69 1l-2.49-1a.49.49 0 00-.61.22l-2 3.46a.49.49 0 00.12.64L2.3 9a8.55 8.55 0 00-.07 1 7.77 7.77 0 00.07 1L.19 12.63a.49.49 0 00-.12.64l2 3.46a.5.5 0 00.61.22l2.49-1a7 7 0 001.69 1l.37 2.65a.5.5 0 00.5.41h4a.5.5 0 00.5-.41l.37-2.65a7.28 7.28 0 001.69-1l2.49 1a.5.5 0 00.61-.22l2-3.46a.5.5 0 00-.12-.64z"/></symbol><symbol viewBox="0 0 12 12" id="icon-cd_share" xmlns="http://www.w3.org/2000/svg"><path d="M12 5.67L7.33 1v2.67C2.67 4.33.67 7.67 0 11c1.67-2.33 4-3.4 7.33-3.4v2.73z"/></symbol><symbol viewBox="0 0 17 14" id="icon-cd_show-all-models" xmlns="http://www.w3.org/2000/svg"><path d="M3.8-.3h13v2h-13v-2m0 8v-2h13v2h-13m0 6v-2h13v2h-13M-.2 11.7h2v2h-2zM-.2 5.7h2v2h-2zM-.2-.3h2v2h-2z"/></symbol><symbol id="icon-cd_side-profile--car" viewBox="0 0 16 5.76" xmlns="http://www.w3.org/2000/svg"><defs><style>.cmcls-1{fill:none}</style></defs><path class="cmcls-1" d="M8 .99v1h2.65l-1.84-1H8zM4.18 1.99H7v-1H5.3l-1.12 1z"/><path d="M16 3.24l-.23-.12-.19-.6c-.62-.71-3.63-.56-3.91-.75A25.82 25.82 0 009.06.07c-.22 0-4 .08-4.63.22A12 12 0 002 2H.71S.53 1.78.49 2s0 .16 0 .16v.67s-.28 0-.36.11a1.67 1.67 0 00.11 1.22 5.4 5.4 0 001.66.89 1.33 1.33 0 01-.07-.45 1.48 1.48 0 011.48-1.48A1.46 1.46 0 014.8 4.57c0 .16 0 .42-.08.42h7.39S12 4.73 12 4.57a1.49 1.49 0 013 0c0 .16 0 .43-.08.43h.17c1.2 0 .91-1.76.91-1.76zM7 2H4.18L5.3 1H7zm1 0V1h.81l1.84 1z"/><path d="M3.31 3.44a1.17 1.17 0 00-1.06 1.62 1.15 1.15 0 002.12 0 1.15 1.15 0 00.1-.46 1.16 1.16 0 00-1.16-1.16zM13.51 3.44a1.16 1.16 0 00-1.15 1.16 1 1 0 00.1.46 1.14 1.14 0 001 .7 1.16 1.16 0 100-2.32z"/></symbol><symbol viewBox="0 0 16 8.06" id="icon-cd_side-profile--van" xmlns="http://www.w3.org/2000/svg"><path d="M13 5.71a1.18 1.18 0 101.18 1.17A1.17 1.17 0 0013 5.71zM3 5.71a1.18 1.18 0 101.14 1.17A1.17 1.17 0 003 5.71z"/><path d="M15.9 5.25L15.7 5a2.18 2.18 0 00-.82-1.12l-1.57-.78L12 1.08A2.2 2.2 0 0010.17 0h-8A2.05 2.05 0 00.18 1.35L0 1.38v3.48c0 .14.11.28 0 .37s-.09.27-.08.43C-.06 6 .12 7 .56 7h1v-.13A1.44 1.44 0 013 5.42a1.44 1.44 0 011.38 1.44v.13h7.17v-.13a1.43 1.43 0 112.85 0v.13h.54a.53.53 0 00.34-.15l.59-.55a.53.53 0 00.13-.38v-.36a.47.47 0 00-.1-.3zm-5.19-.65H10a.2.2 0 01-.2-.21.2.2 0 01.2-.2h.75a.21.21 0 110 .41zm1.94-1.18a.54.54 0 01-.49.26l-1.87-.17C10 3.49 10 3.27 10 3V1.87c0-.29-.16-.88.13-.88h1.22c.17 0 .33.27.43.41l.86 1.38a.66.66 0 01.01.64z"/></symbol><symbol viewBox="0 0 16.88 14" id="icon-cd_sort" xmlns="http://www.w3.org/2000/svg"><path d="M7 8V6h7v2H7m0 5v-2h3v2H7M7 3V1h10v2H7m-3 8h1.76l-2.88 2.88L0 11h2V3H0L2.88.11 5.76 3H4z"/></symbol><symbol viewBox="0 0 8.2 4.1" id="icon-cd_sorting--down" xmlns="http://www.w3.org/2000/svg"><path d="M8.2-.3L4.1 3.8 0-.3z"/></symbol><symbol viewBox="0 0 8.2 4.1" id="icon-cd_sorting--up" xmlns="http://www.w3.org/2000/svg"><path d="M0 4L4.1-.1 8.2 4z"/></symbol><symbol viewBox="0 0 12 12" id="icon-cd_standard" xmlns="http://www.w3.org/2000/svg"><path d="M8.79 7.91A2.24 2.24 0 018 9.74a3.67 3.67 0 01-2.33.66 5.48 5.48 0 01-2.42-.51V8.2a10.5 10.5 0 001.47.55 4.51 4.51 0 001.09.15 1.51 1.51 0 00.92-.23.83.83 0 00.18-1.12 1.52 1.52 0 00-.41-.38 9.5 9.5 0 00-1.11-.58 5.11 5.11 0 01-1.18-.71 2.82 2.82 0 01-.63-.79A2.33 2.33 0 013.31 4a2.19 2.19 0 01.77-1.78 3.15 3.15 0 012.13-.62 5.26 5.26 0 011.27.15 9.26 9.26 0 011.27.45l-.58 1.41A7.74 7.74 0 007 3.22a3.85 3.85 0 00-.88-.11 1.17 1.17 0 00-.79.24.78.78 0 00-.25.65.76.76 0 00.11.41 1.34 1.34 0 00.36.35 10.66 10.66 0 001.15.6 4.66 4.66 0 011.65 1.13 2.31 2.31 0 01.44 1.42z"/></symbol><symbol viewBox="0 0 7.77 10.13" id="icon-cd_standards" xmlns="http://www.w3.org/2000/svg"><path d="M6.1 7.36a1.23 1.23 0 00-.51-1.05 4.94 4.94 0 00-1.78-.65 8.12 8.12 0 01-2-.65 2.89 2.89 0 01-1.1-.9 2.14 2.14 0 01-.38-1.25 2.54 2.54 0 011-2A4 4 0 014 0a4.06 4.06 0 012.64.83A2.54 2.54 0 017.68 3H6a2.75 2.75 0 00-.58-1.16A2.19 2.19 0 004 1.36a2.32 2.32 0 00-1.43.4A1.28 1.28 0 002 2.81a1 1 0 00.47.91 6.18 6.18 0 001.73.59 8.59 8.59 0 012 .67 3 3 0 011.15.93 2.31 2.31 0 01.38 1.33 2.48 2.48 0 01-1 2.1 4.37 4.37 0 01-2.73.79 4.92 4.92 0 01-2.08-.41A3.39 3.39 0 01.51 8.59 2 2 0 010 7h1.67c0 1 .26 1 .67 1.31A2.68 2.68 0 004 8.78a2.66 2.66 0 001.52-.39 1.17 1.17 0 00.58-1.03z"/></symbol><symbol viewBox="0 0 20 19" id="icon-cd_star" xmlns="http://www.w3.org/2000/svg"><path d="M10 15.27L16.18 19l-1.64-7L20 7.24l-7.19-.62L10 0 7.19 6.62 0 7.24 5.45 12l-1.63 7z"/></symbol><symbol viewBox="0 0 20 19" id="icon-cd_star--outline" xmlns="http://www.w3.org/2000/svg"><path d="M10 13.39l-3.76 2.27 1-4.28L3.91 8.5l4.38-.37 1.71-4 1.71 4 4.38.37-3.32 2.88 1 4.28M20 7.24l-7.19-.61L10 0 7.19 6.63 0 7.24 5.45 12l-1.63 7L10 15.27 16.18 19l-1.64-7z"/></symbol><symbol viewBox="0 0 12 12" id="icon-cd_swap" xmlns="http://www.w3.org/2000/svg"><path d="M12 4L9.33 1.33v2H4.67v1.34h4.66v2M2.67 5.33L0 8l2.67 2.67v-2h4.66V7.33H2.67z"/></symbol><symbol viewBox="0 0 12 12" id="icon-cd_target" xmlns="http://www.w3.org/2000/svg"><path d="M5.4 0v1.24A4.82 4.82 0 001.24 5.4H0v1.2h1.24a4.82 4.82 0 004.16 4.16V12h1.2v-1.24a4.82 4.82 0 004.16-4.16H12V5.4h-1.24A4.82 4.82 0 006.6 1.24V0M5.4 2.45V3.6h1.2V2.45a3.61 3.61 0 013 3H8.4V6.6h1.15a3.61 3.61 0 01-3 3V8.4H5.4v1.15a3.61 3.61 0 01-2.95-3H3.6V5.4H2.45a3.61 3.61 0 013-2.95m.6 3a.6.6 0 10.6.6A.6.6 0 006 5.4z"/></symbol><symbol viewBox="0 0 14.5 11.11" id="icon-cd_tick" xmlns="http://www.w3.org/2000/svg"><path d="M14.5 1.17l-9.94 9.94L0 6.55l1.17-1.16 3.39 3.38L13.33 0z"/></symbol><symbol id="icon-cd_upgrade-car" viewBox="0 0 19.52 12" xmlns="http://www.w3.org/2000/svg"><defs><style>.cycls-1{stroke:#000;stroke-miterlimit:10;stroke-width:.25px}</style></defs><path class="cycls-1" d="M1.83 8.12a4.45 4.45 0 116.29 0 4.44 4.44 0 01-6.29 0zm6-6a4 4 0 100 5.63 4 4 0 00-.04-5.59z"/><path d="M19.48 4.47l-.11-.27a.45.45 0 00-.37-.27h-1.84l-.55-1.68a.91.91 0 00-.86-.63H9.24a6 6 0 01.58.9h5.94l.8 2.48H10.4A5.42 5.42 0 015 10.4a4.86 4.86 0 01-1.09-.11V12h2.7v-1.36h10V12h2.69V7.05a1 1 0 00-.3-.74l-1-.83 1.18-.41a.45.45 0 00.3-.6zm-1.21 2.85v.45a.48.48 0 01-.48.48H15.7a.47.47 0 01-.48-.48.49.49 0 01.38-.47l2.09-.45a.48.48 0 01.58.47z"/><path d="M4.11 6.29h1.73V4.95h1.39L4.98 2.7 2.72 4.95h1.39v1.34zM4.11 6.69h1.73v.57H4.11z"/></symbol></svg>